#!OML:ASF I:\Actors\actors\Patient Classification 2\Patient 1\Session 1\actor1.ASF
:FULLY-SPECIFIED
:DEGREES
585
root -0.670948 18.6447 5.75032 -1.62267 -3.99259 -2.00024
lowerback 4.04268 0.944674 -0.997335
upperback -1.39636 1.22845 0.638918
thorax -3.74087 0.642333 1.12878
lowerneck -13.4622 -2.80976 -2.1375
upperneck 22.0605 -4.28026 3.48971
head 9.28288 -1.80447 1.04317
rclavicle 9.93923e-017 -1.37161e-014
rhumerus -48.3098 -9.46317 -83.0101
rradius 42.7246
rwrist 11.5801
rhand -4.78308 -34.7102
rfingers 7.12502
rthumb 21.0018 -63.5931
lclavicle 9.93923e-017 -1.37161e-014
lhumerus -43.9196 4.56842 87.8826
lradius 42.7897
lwrist 8.47788
lhand -10.2899 -24.9287
lfingers 7.12502
lthumb 15.7045 4.45402
rfemur 9.5292 7.5223 16.6413
rtibia -4.77083e-015
rfoot -18.8887 -13.0728
rtoes 0.620073
lfemur -0.556961 -5.94942 -12.8705
ltibia 20.9922
lfoot -23.3081 13.819
ltoes -54.3515
586
root -0.671855 18.645 5.74734 -1.65295 -3.98033 -2.01611
lowerback 4.1115 0.960092 -0.978225
upperback -1.3829 1.24967 0.642586
thorax -3.76609 0.652518 1.11928
lowerneck -13.488 -2.8147 -2.14899
upperneck 22.0787 -4.27863 3.46497
head 9.29366 -1.80676 1.0365
rclavicle -1.11319e-014 -5.56597e-015
rhumerus -48.4334 -9.35781 -83.0615
rradius 42.5931
rwrist 11.7175
rhand -5.28979 -34.3882
rfingers 7.12502
rthumb 20.515 -63.3243
lclavicle -1.11319e-014 -5.56597e-015
lhumerus -43.9697 4.7946 87.8772
lradius 42.223
lwrist 8.01646
lhand -10.5867 -25.129
lfingers 7.12502
lthumb 15.4186 4.27593
rfemur 9.55584 7.51104 16.6656
rtibia -3.02153e-014
rfoot -18.9007 -13.0717
rtoes 0.693063
lfemur -0.537306 -5.97627 -12.8534
ltibia 20.9939
lfoot -23.2855 13.8249
ltoes -54.3218
587
root -0.673406 18.6452 5.74468 -1.66311 -3.96122 -2.08825
lowerback 4.16335 0.973031 -0.88175
upperback -1.37072 1.27194 0.64165
thorax -3.78116 0.661286 1.06179
lowerneck -13.5086 -2.83284 -2.20798
upperneck 22.0822 -4.30664 3.53466
head 9.30269 -1.81677 1.06662
rclavicle -7.76503e-015 2.18663e-015
rhumerus -48.5122 -9.36529 -83.028
rradius 42.4047
rwrist 12.0301
rhand -5.70215 -34.193
rfingers 7.12502
rthumb 20.1187 -63.1713
lclavicle -7.76503e-015 2.18663e-015
lhumerus -44.0037 5.00646 87.8127
lradius 41.6858
lwrist 7.54116
lhand -10.7806 -25.2506
lfingers 7.12502
lthumb 15.2319 4.16866
rfemur 9.56542 7.48936 16.7528
rtibia -6.36111e-015
rfoot -18.8986 -13.0809
rtoes 0.675041
lfemur -0.540922 -5.96148 -12.7588
ltibia 20.9956
lfoot -23.252 13.7933
ltoes -54.2802
588
root -0.67452 18.6455 5.74379 -1.65218 -3.94355 -2.09779
lowerback 4.157 0.986308 -0.860733
upperback -1.35522 1.29067 0.636524
thorax -3.76141 0.669882 1.04358
lowerneck -13.5101 -2.85375 -2.27024
upperneck 22.0689 -4.33287 3.58595
head 9.30188 -1.82866 1.09142
rclavicle -3.31722e-015 -1.59028e-015
rhumerus -48.5414 -9.41022 -82.9048
rradius 42.1663
rwrist 12.4626
rhand -6.09234 -33.9589
rfingers 7.12502
rthumb 19.7436 -62.9762
lclavicle -3.31722e-015 -1.59028e-015
lhumerus -43.9507 5.56104 87.6227
lradius 41.1748
lwrist 6.79017
lhand -10.7865 -24.9122
lfingers 7.12502
lthumb 15.2261 4.50749
rfemur 9.55062 7.47046 16.7651
rtibia 1.59028e-014
rfoot -18.8955 -13.1014
rtoes 0.53595
lfemur -0.562078 -5.98687 -12.7445
ltibia 21.0015
lfoot -23.2835 13.7898
ltoes -54.2614
589
root -0.674764 18.6457 5.74326 -1.63775 -3.92387 -2.04965
lowerback 4.12449 0.992937 -0.900907
upperback -1.33666 1.29687 0.620377
thorax -3.72453 0.673465 1.04974
lowerneck -13.5058 -2.85774 -2.29509
upperneck 22.0487 -4.33417 3.59652
head 9.2949 -1.83039 1.0991
rclavicle -2.28602e-014 5.96354e-015
rhumerus -48.6044 -9.21493 -82.9377
rradius 42.0945
rwrist 12.5422
rhand -6.42213 -33.7763
rfingers 7.12502
rthumb 19.4265 -62.8258
lclavicle -2.28602e-014 5.96354e-015
lhumerus -43.8684 6.1276 87.4447
lradius 40.7568
lwrist 5.97487
lhand -10.8413 -24.0111
lfingers 7.12502
lthumb 15.1734 5.41257
rfemur 9.53342 7.45182 16.7089
rtibia -6.36111e-015
rfoot -18.8862 -13.0958
rtoes 0.54284
lfemur -0.587261 -6.0207 -12.8007
ltibia 21.0076
lfoot -23.3202 13.7926
ltoes -54.2275
590
root -0.675172 18.6457 5.74173 -1.62973 -3.91197 -2.0569
lowerback 4.1025 0.99809 -0.869986
upperback -1.31139 1.30514 0.608182
thorax -3.68517 0.676424 1.01985
lowerneck -13.5135 -2.84326 -2.30159
upperneck 22.0137 -4.31732 3.62469
head 9.28443 -1.82018 1.11179
rclavicle 1.99157e-014 -8.15017e-015
rhumerus -48.689 -8.95318 -83.0649
rradius 42.1564
rwrist 12.4315
rhand -6.43123 -33.839
rfingers 7.12502
rthumb 19.4178 -62.8895
lclavicle 1.99157e-014 -8.15017e-015
lhumerus -43.8958 6.04435 87.489
lradius 40.4406
lwrist 5.74023
lhand -10.9334 -23.4612
lfingers 7.12502
lthumb 15.0846 5.96912
rfemur 9.52527 7.43906 16.7173
rtibia 6.36111e-015
rfoot -18.8642 -13.0759
rtoes 0.646104
lfemur -0.602834 -6.00646 -12.7855
ltibia 21.0033
lfoot -23.3064 13.78
ltoes -54.2395
591
root -0.676536 18.6461 5.74041 -1.62591 -3.91715 -2.07948
lowerback 4.09915 1.01251 -0.826525
upperback -1.29119 1.32654 0.601618
thorax -3.66172 0.685805 0.987416
lowerneck -13.5362 -2.82999 -2.30963
upperneck 21.9974 -4.30325 3.65664
head 9.28348 -1.81058 1.12553
rclavicle 1.00635e-015 1.27222e-014
rhumerus -48.7454 -8.83622 -83.1094
rradius 42.1682
rwrist 12.4723
rhand -7.19424 -33.4554
rfingers 7.12502
rthumb 18.684 -62.5781
lclavicle 1.00635e-015 1.27222e-014
lhumerus -43.9388 5.96997 87.4873
lradius 40.0997
lwrist 5.47938
lhand -10.8228 -23.4999
lfingers 7.12502
lthumb 15.1912 5.92242
rfemur 9.51797 7.44266 16.7477
rtibia 1.74931e-014
rfoot -18.863 -13.0701
rtoes 0.680127
lfemur -0.605358 -5.99533 -12.7519
ltibia 20.9935
lfoot -23.2873 13.7781
ltoes -54.2804
592
root -0.67823 18.6466 5.74031 -1.62466 -3.92021 -2.06906
lowerback 4.10428 1.02086 -0.831695
upperback -1.28486 1.3369 0.588627
thorax -3.65813 0.69087 0.976145
lowerneck -13.531 -2.82498 -2.3126
upperneck 21.9938 -4.30575 3.69957
head 9.28245 -1.80739 1.14053
rclavicle -7.46685e-015 1.23246e-014
rhumerus -48.7924 -8.67775 -83.1897
rradius 42.2137
rwrist 12.5352
rhand -8.00357 -32.9893
rfingers 7.12502
rthumb 17.9054 -62.185
lclavicle -7.46685e-015 1.23246e-014
lhumerus -43.9753 6.09404 87.3829
lradius 39.7964
lwrist 4.99376
lhand -10.6526 -23.5352
lfingers 7.12502
lthumb 15.3551 5.87464
rfemur 9.51439 7.4454 16.7417
rtibia -1.27222e-014
rfoot -18.88 -13.0757
rtoes 0.584818
lfemur -0.601663 -6.04798 -12.7654
ltibia 20.9864
lfoot -23.3019 13.809
ltoes -54.2166
593
root -0.679054 18.6466 5.74046 -1.62047 -3.9098 -2.05274
lowerback 4.09655 1.0205 -0.836026
upperback -1.28203 1.33549 0.567834
thorax -3.65039 0.68998 0.957422
lowerneck -13.485 -2.81495 -2.27962
upperneck 21.9695 -4.30511 3.72439
head 9.26524 -1.80253 1.14414
rclavicle 2.65874e-015 -4.77083e-015
rhumerus -48.8288 -8.41255 -83.3589
rradius 42.3505
rwrist 12.4957
rhand -7.07103 -33.3991
rfingers 7.12502
rthumb 18.8025 -62.5104
lclavicle 2.65874e-015 -4.77083e-015
lhumerus -44.0114 6.12393 87.2971
lradius 39.5299
lwrist 4.62556
lhand -10.5342 -23.4216
lfingers 7.12502
lthumb 15.4692 5.97952
rfemur 9.50935 7.43517 16.7246
rtibia 1.90833e-014
rfoot -18.871 -13.0816
rtoes 0.465878
lfemur -0.60621 -6.1264 -12.7925
ltibia 20.9825
lfoot -23.3367 13.8699
ltoes -54.1566
594
root -0.679706 18.6467 5.7403 -1.60341 -3.88598 -2.04621
lowerback 4.07292 1.01545 -0.835453
upperback -1.28284 1.32882 0.564369
thorax -3.63762 0.686563 0.954434
lowerneck -13.4484 -2.80142 -2.27875
upperneck 21.9707 -4.28681 3.72427
head 9.25815 -1.79439 1.14664
rclavicle 2.41399e-014 -9.54166e-015
rhumerus -48.8168 -8.27123 -83.3719
rradius 42.3379
rwrist 12.4537
rhand -6.18181 -33.8046
rfingers 7.12502
rthumb 19.6576 -62.8308
lclavicle 2.41399e-014 -9.54166e-015
lhumerus -44.0085 6.20972 87.2112
lradius 39.2538
lwrist 4.25479
lhand -10.5008 -23.3859
lfingers 7.12502
lthumb 15.5014 6.01271
rfemur 9.49363 7.41053 16.7156
rtibia -3.49861e-014
rfoot -18.8714 -13.0877
rtoes 0.394639
lfemur -0.634677 -6.11873 -12.7916
ltibia 20.9815
lfoot -23.2971 13.8882
ltoes -54.2518
595
root -0.681362 18.6469 5.73982 -1.58585 -3.87224 -2.0716
lowerback 4.06944 1.01573 -0.820147
upperback -1.29373 1.3307 0.582473
thorax -3.64705 0.687461 0.964317
lowerneck -13.4522 -2.8005 -2.32911
upperneck 22.0342 -4.28015 3.74049
head 9.28219 -1.79294 1.16151
rclavicle -9.19379e-016 -9.14409e-015
rhumerus -48.7916 -8.29825 -83.2147
rradius 42.1958
rwrist 12.4787
rhand -6.39791 -33.8196
rfingers 7.12502
rthumb 19.4498 -62.8668
lclavicle -9.19379e-016 -9.14409e-015
lhumerus -43.9356 6.68001 86.9579
lradius 38.8959
lwrist 3.44665
lhand -10.4093 -23.5881
lfingers 7.12502
lthumb 15.5895 5.80365
rfemur 9.48133 7.39435 16.7458
rtibia 2.06736e-014
rfoot -18.8961 -13.0605
rtoes 0.532717
lfemur -0.66126 -6.08048 -12.7472
ltibia 20.9836
lfoot -23.2241 13.89
ltoes -54.3582
596
root -0.683381 18.647 5.73879 -1.57521 -3.87074 -2.10421
lowerback 4.08973 1.03195 -0.790809
upperback -1.3043 1.35401 0.586749
thorax -3.6694 0.698563 0.950101
lowerneck -13.4803 -2.817 -2.34217
upperneck 22.1032 -4.3046 3.74854
head 9.31287 -1.8034 1.16325
rclavicle 2.10463e-014 -1.68967e-014
rhumerus -48.7819 -8.37084 -83.094
rradius 42.1719
rwrist 12.5863
rhand -6.49378 -33.855
rfingers 7.12502
rthumb 19.3576 -62.9115
lclavicle 2.10463e-014 -1.68967e-014
lhumerus -43.8326 7.14493 86.6634
lradius 38.5661
lwrist 2.59497
lhand -10.2019 -23.7377
lfingers 7.12502
lthumb 15.7892 5.63836
rfemur 9.47076 7.3902 16.789
rtibia -3.18055e-014
rfoot -18.8997 -13.0152
rtoes 0.809893
lfemur -0.676537 -6.11219 -12.7075
ltibia 20.9898
lfoot -23.2254 13.9212
ltoes -54.3639
597
root -0.684606 18.6475 5.73783 -1.55602 -3.85292 -2.10211
lowerback 4.09284 1.03374 -0.780839
upperback -1.31493 1.35647 0.573324
thorax -3.68163 0.69949 0.930333
lowerneck -13.4677 -2.82062 -2.29696
upperneck 22.1123 -4.30924 3.70045
head 9.31165 -1.80711 1.13876
rclavicle 9.0447e-015 6.16232e-015
rhumerus -48.7707 -8.39756 -83.0393
rradius 42.2329
rwrist 12.7152
rhand -6.45674 -33.7638
rfingers 7.12502
rthumb 19.3932 -62.8168
lclavicle 9.0447e-015 6.16232e-015
lhumerus -43.8219 6.90967 86.6803
lradius 38.4851
lwrist 2.57454
lhand -10.1742 -23.7948
lfingers 7.12502
lthumb 15.8159 5.5791
rfemur 9.44846 7.37091 16.789
rtibia 1.11319e-014
rfoot -18.8934 -13.0143
rtoes 0.878023
lfemur -0.705638 -6.15731 -12.7082
ltibia 20.9932
lfoot -23.2714 13.9414
ltoes -54.3644
598
root -0.685613 18.6478 5.73726 -1.52664 -3.81287 -2.08007
lowerback 4.06883 1.01293 -0.800601
upperback -1.32803 1.32751 0.565723
thorax -3.68123 0.685507 0.935998
lowerneck -13.4076 -2.80464 -2.23904
upperneck 22.0811 -4.28279 3.62907
head 9.28556 -1.79888 1.10848
rclavicle -6.94504e-015 2.98177e-015
rhumerus -48.7381 -8.33499 -83.0301
rradius 42.2806
rwrist 12.6904
rhand -6.53936 -33.781
rfingers 7.12502
rthumb 19.3138 -62.8419
lclavicle -6.94504e-015 2.98177e-015
lhumerus -43.8172 6.69166 86.7046
lradius 38.4524
lwrist 2.56492
lhand -10.2254 -23.9548
lfingers 7.12502
lthumb 15.7666 5.42302
rfemur 9.42014 7.32998 16.7606
rtibia -1.27222e-014
rfoot -18.9084 -13.0084
rtoes 0.796932
lfemur -0.751551 -6.13951 -12.7173
ltibia 20.9903
lfoot -23.2613 13.915
ltoes -54.4184
599
root -0.687616 18.6481 5.73712 -1.50486 -3.77729 -2.07428
lowerback 4.04812 1.00741 -0.814042
upperback -1.33615 1.31958 0.566699
thorax -3.6781 0.681915 0.945405
lowerneck -13.3579 -2.80642 -2.2408
upperneck 22.05 -4.27979 3.6108
head 9.26489 -1.80061 1.10345
rclavicle -1.48095e-014 6.95746e-015
rhumerus -48.6778 -8.31187 -82.9975
rradius 42.3083
rwrist 12.6054
rhand -6.62746 -33.9422
rfingers 7.12502
rthumb 19.2291 -63.0116
lclavicle -1.48095e-014 6.95746e-015
lhumerus -43.7509 6.75753 86.6087
lradius 38.3868
lwrist 2.16944
lhand -10.1594 -24.0303
lfingers 7.12502
lthumb 15.8302 5.34251
rfemur 9.40156 7.29302 16.754
rtibia 3.18055e-015
rfoot -18.8912 -12.9983
rtoes 0.540408
lfemur -0.78388 -6.13563 -12.7079
ltibia 20.9882
lfoot -23.2256 13.8587
ltoes -54.3967
